<svg width="145" height="125" viewBox="0 0 145 125" fill="none" xmlns="http://www.w3.org/2000/svg">
<g filter="url(#filter0_d_29_4)">
<path d="M68.6921 85.375L45.3796 62.125C44.3911 61.1399 43.8355 59.8018 43.8355 58.4063C43.8355 57.0107 44.3911 55.6726 45.3796 54.6875C47.4586 52.6954 50.7381 52.6954 52.8171 54.6875L67.1296 69.0625V6C67.1296 3.1005 69.4801 0.75 72.3796 0.75C75.2791 0.75 77.6296 3.1005 77.6296 6V69.0625L91.9421 54.6875C94.0211 52.6954 97.3006 52.6954 99.3796 54.6875C100.368 55.6726 100.924 57.0107 100.924 58.4063C100.924 59.8018 100.368 61.1399 99.3796 62.125L76.0671 85.375C75.1049 86.3805 73.7713 86.9457 72.3796 86.9375C70.9849 86.9609 69.6454 86.3933 68.6921 85.375Z" fill="#4A76FA"/>
<path d="M105.005 34.625H112.567C128.294 34.9667 140.784 47.9598 140.505 63.6875V87.5C140.784 103.228 128.294 116.221 112.567 116.563L32.1921 116.063C16.4656 115.721 3.97555 102.728 4.25463 87V63.1875C4.0702 55.601 6.91238 48.2531 12.1539 42.7653C17.3953 37.2776 24.6052 34.1013 32.1921 33.9375H39.7546C42.6541 33.9375 45.0046 36.288 45.0046 39.1875C45.0046 42.087 42.6541 44.4375 39.7546 44.4375H32.1921C27.3837 44.5836 22.8339 46.6483 19.5578 50.171C16.2817 53.6937 14.552 58.3811 14.7546 63.1875V86.8125C14.552 91.6189 16.2817 96.3063 19.5578 99.829C22.8339 103.352 27.3837 105.416 32.1921 105.563L112.567 106.438C117.376 106.291 121.925 104.227 125.202 100.704C128.478 97.1813 130.207 92.4939 130.005 87.6875V63.875C130.207 59.0687 128.478 54.3812 125.202 50.8585C121.925 47.3358 117.376 45.2711 112.567 45.125H105.005C102.105 45.125 99.7546 42.7745 99.7546 39.875C99.7546 36.9755 102.105 34.625 105.005 34.625Z" fill="#4A76FA"/>
</g>
<defs>
<filter id="filter0_d_29_4" x="0.246185" y="0.75" width="144.263" height="123.812" filterUnits="userSpaceOnUse" color-interpolation-filters="sRGB">
<feFlood flood-opacity="0" result="BackgroundImageFix"/>
<feColorMatrix in="SourceAlpha" type="matrix" values="0 0 0 0 0 0 0 0 0 0 0 0 0 0 0 0 0 0 127 0" result="hardAlpha"/>
<feOffset dy="4"/>
<feGaussianBlur stdDeviation="2"/>
<feComposite in2="hardAlpha" operator="out"/>
<feColorMatrix type="matrix" values="0 0 0 0 1 0 0 0 0 1 0 0 0 0 1 0 0 0 0.25 0"/>
<feBlend mode="normal" in2="BackgroundImageFix" result="effect1_dropShadow_29_4"/>
<feBlend mode="normal" in="SourceGraphic" in2="effect1_dropShadow_29_4" result="shape"/>
</filter>
</defs>
</svg>
