<svg width="210" height="38" viewBox="0 0 210 38" fill="none" xmlns="http://www.w3.org/2000/svg">
<path fill-rule="evenodd" clip-rule="evenodd" d="M11.1222 2.1827C11.1222 2.14828 11.1227 2.1183 11.1237 2.09235C11.1743 2.08182 11.2419 2.07023 11.3304 2.0594C11.7212 2.01159 12.3126 1.99814 13.2405 2.00022C13.5878 2.001 13.9867 2.00396 14.4339 2.00727L14.434 2.00727C15.1323 2.01244 15.9486 2.01849 16.8703 2.01849C17.7458 2.01849 18.5304 2.01252 19.2076 2.00737H19.2077H19.2077L19.2078 2.00737L19.2079 2.00737C19.6492 2.00402 20.045 2.00101 20.3905 2.00022C21.3043 1.99814 21.9069 2.01144 22.3168 2.05989C22.4583 2.07662 22.5544 2.09552 22.617 2.11101C22.6178 2.13166 22.6183 2.15545 22.6183 2.1827C22.6183 2.44561 22.5479 2.50275 22.4854 2.54868C22.35 2.6482 22.0546 2.76419 21.4681 2.83118C20.9016 2.8959 20.1944 2.90277 19.3347 2.88979C19.0615 2.88567 18.772 2.87951 18.47 2.87308L18.4699 2.87308L18.4699 2.87308C17.8481 2.85985 17.1738 2.84551 16.4809 2.84551C15.9287 2.84551 15.4809 3.29322 15.4809 3.84551C15.4809 4.39779 15.9287 4.84551 16.4809 4.84551C17.1537 4.84551 17.7876 4.85904 18.3968 4.87205L18.3968 4.87205H18.3968H18.3968H18.3969H18.3969H18.3969C18.7051 4.87863 19.0071 4.88507 19.3045 4.88956C19.8711 4.89811 20.4204 4.89952 20.9313 4.87651V11.8999C19.6694 11.6691 18.3532 11.547 17 11.547C15.7393 11.547 14.5107 11.653 13.3282 11.8541V4.84887C13.5945 4.85438 13.8673 4.85602 14.1445 4.85617C14.6968 4.85649 15.1447 4.40903 15.1451 3.85675C15.1454 3.30446 14.6979 2.85649 14.1456 2.85617C12.8066 2.85541 11.9727 2.80505 11.4761 2.63744C11.2557 2.56306 11.1942 2.49374 11.1794 2.47433L11.1793 2.47425C11.1703 2.46241 11.1222 2.39934 11.1222 2.1827ZM11.3282 4.66507C11.1551 4.62828 10.9908 4.5845 10.8365 4.53242C10.3769 4.3773 9.92139 4.12287 9.58912 3.68722C9.25092 3.2438 9.12216 2.72031 9.12216 2.1827C9.12216 1.81267 9.1463 1.21479 9.57102 0.736381C9.98762 0.267114 10.5897 0.135118 11.0876 0.0742055C11.6214 0.00889322 12.3358 -0.00181333 13.245 0.000226819C13.6207 0.00106999 14.0268 0.00411608 14.4759 0.00748529C15.1593 0.012612 15.9424 0.0184869 16.8703 0.0184869C17.753 0.0184869 18.5035 0.0126996 19.1648 0.00760033C19.6076 0.00418647 20.0103 0.00108095 20.386 0.00022664C21.285 -0.00181774 22.0044 0.00904247 22.5516 0.0737165C23.0643 0.13432 23.6601 0.262371 24.0912 0.692088C24.5604 1.15982 24.6183 1.75863 24.6183 2.1827C24.6183 3.0006 24.3073 3.69174 23.6698 4.16024C23.4447 4.32567 23.1945 4.45131 22.9313 4.54756V12.3684C29.3955 14.2276 34 19.0379 34 24.679C34 31.9316 26.3888 37.811 17 37.811C7.61116 37.811 0 31.9316 0 24.679C0 18.9604 4.7319 14.0956 11.3361 12.2935C11.3309 12.2522 11.3282 12.2101 11.3282 12.1674V4.66507ZM32 24.679C32 26.0747 31.6278 27.4545 30.9365 28.7425C31.3119 27.8184 31.5152 26.8371 31.5152 25.8164C31.5152 25.799 31.5144 25.7818 31.5126 25.7648C31.5144 25.7478 31.5153 25.7305 31.5153 25.713C31.5153 25.4368 31.2914 25.213 31.0153 25.213H2.85496C2.57882 25.213 2.35496 25.4368 2.35496 25.713C2.35496 25.7304 2.35585 25.7476 2.35759 25.7646C2.35584 25.7816 2.35494 25.7989 2.35494 25.8164C2.35494 26.4845 2.44203 27.1356 2.60748 27.7649C2.21 26.7667 2 25.7273 2 24.679C2 19.7217 6.69562 14.965 13.7073 13.8114L11.726 14.4034C11.4614 14.4825 11.3423 14.7491 11.4599 14.999C11.5775 15.2488 11.8873 15.3873 12.1519 15.3082L14.2282 14.6878C14.4928 14.6087 14.6119 14.3421 14.4943 14.0923C14.4073 13.9073 14.2149 13.7834 14.0135 13.7636C14.9693 13.622 15.9668 13.547 17 13.547C25.7951 13.547 32 18.9804 32 24.679ZM26.6032 32.4269C28.93 30.7864 30.36 28.5951 30.5033 26.213H3.36686C3.51023 28.5951 4.94014 30.7864 7.26702 32.4269C9.72113 34.1571 13.1377 35.243 16.9351 35.243C20.7324 35.243 24.1491 34.157 26.6032 32.4269ZM6.68711 18.5011C5.79289 19.3745 5.09027 20.3808 4.29319 21.7842C4.16493 22.01 3.83709 22.1171 3.56092 22.0233C3.28475 21.9294 3.16484 21.6703 3.29309 21.4445C4.10801 20.0097 4.85977 18.92 5.84699 17.9557C6.83577 16.9899 8.0389 16.171 9.72607 15.2537C9.98293 15.114 10.3237 15.1635 10.4872 15.3642C10.6508 15.5649 10.5751 15.8408 10.3182 15.9805C8.68514 16.8685 7.57976 17.6291 6.68711 18.5011ZM20.542 31.7103C20.542 31.8714 20.4581 32.0903 20.1783 32.3022C19.8978 32.5144 19.4656 32.6749 18.9466 32.6749C18.4275 32.6749 17.9953 32.5144 17.7149 32.3022C17.435 32.0903 17.3511 31.8714 17.3511 31.7103C17.3511 31.5491 17.435 31.3302 17.7149 31.1184C17.9953 30.9061 18.4275 30.7456 18.9466 30.7456C19.4656 30.7456 19.8978 30.9061 20.1783 31.1184C20.4581 31.3302 20.542 31.5491 20.542 31.7103ZM21.542 31.7103C21.542 32.7953 20.38 33.6749 18.9466 33.6749C17.5132 33.6749 16.3511 32.7953 16.3511 31.7103C16.3511 30.6252 17.5132 29.7456 18.9466 29.7456C20.38 29.7456 21.542 30.6252 21.542 31.7103ZM24.1804 30.8557C24.1806 30.8557 24.1802 30.8573 24.1784 30.8602C24.1794 30.8571 24.1802 30.8557 24.1804 30.8557ZM24.1595 30.8831C24.1531 30.8767 24.1448 30.8693 24.1343 30.8609C24.0654 30.8059 23.9321 30.7456 23.7481 30.7456C23.564 30.7456 23.4308 30.8059 23.3619 30.8609C23.3514 30.8693 23.3431 30.8767 23.3367 30.8831C23.3431 30.8895 23.3514 30.8969 23.3619 30.9053C23.4308 30.9602 23.564 31.0205 23.7481 31.0205C23.9321 31.0205 24.0654 30.9602 24.1343 30.9053L24.142 30.899C24.1489 30.8931 24.1547 30.8878 24.1595 30.8831ZM23.3157 30.8557C23.3159 30.8557 23.3168 30.8571 23.3178 30.8602C23.316 30.8573 23.3155 30.8557 23.3157 30.8557ZM23.3157 30.9104C23.3155 30.9104 23.316 30.9089 23.3178 30.9059C23.3168 30.909 23.3159 30.9105 23.3157 30.9104ZM24.1784 30.9059L24.1799 30.9086C24.1804 30.9098 24.1806 30.9104 24.1804 30.9104C24.1803 30.9105 24.18 30.91 24.1796 30.9091L24.1784 30.9059ZM23.7481 32.0205C24.5365 32.0205 25.1756 31.5112 25.1756 30.8831C25.1756 30.2549 24.5365 29.7456 23.7481 29.7456C22.9597 29.7456 22.3206 30.2549 22.3206 30.8831C22.3206 31.5112 22.9597 32.0205 23.7481 32.0205ZM25.6947 28.298C25.6947 28.7549 25.2299 29.1252 24.6565 29.1252C24.0831 29.1252 23.6183 28.7549 23.6183 28.298C23.6183 27.8412 24.0831 27.4708 24.6565 27.4708C25.2299 27.4708 25.6947 27.8412 25.6947 28.298Z" fill="white"/>
<path d="M63.1648 20.8693H58.9034C58.8466 20.4318 58.7301 20.0369 58.554 19.6847C58.3778 19.3324 58.1449 19.0312 57.8551 18.7812C57.5653 18.5312 57.2216 18.3409 56.8239 18.2102C56.4318 18.0739 55.9972 18.0057 55.5199 18.0057C54.6733 18.0057 53.9432 18.2131 53.3295 18.6278C52.7216 19.0426 52.2528 19.642 51.9233 20.4261C51.5994 21.2102 51.4375 22.1591 51.4375 23.2727C51.4375 24.4318 51.6023 25.4034 51.9318 26.1875C52.267 26.9659 52.7358 27.554 53.3381 27.9517C53.946 28.3437 54.6648 28.5398 55.4943 28.5398C55.9602 28.5398 56.3835 28.4801 56.7642 28.3608C57.1506 28.2415 57.4886 28.0682 57.7784 27.8409C58.0739 27.608 58.3153 27.3267 58.5028 26.9972C58.696 26.6619 58.8295 26.2841 58.9034 25.8636L63.1648 25.8892C63.0909 26.6619 62.8665 27.4233 62.4915 28.1733C62.1222 28.9233 61.6136 29.608 60.9659 30.2273C60.3182 30.8409 59.5284 31.3295 58.5966 31.6932C57.6705 32.0568 56.608 32.2386 55.4091 32.2386C53.8295 32.2386 52.4148 31.892 51.1648 31.1989C49.9205 30.5 48.9375 29.483 48.2159 28.1477C47.4943 26.8125 47.1335 25.1875 47.1335 23.2727C47.1335 21.3523 47.5 19.7244 48.233 18.3892C48.9659 17.054 49.9574 16.0398 51.2074 15.3466C52.4574 14.6534 53.858 14.3068 55.4091 14.3068C56.4659 14.3068 57.4432 14.4545 58.3409 14.75C59.2386 15.0398 60.0284 15.4659 60.7102 16.0284C61.392 16.5852 61.946 17.2699 62.3722 18.0824C62.7983 18.8949 63.0625 19.8239 63.1648 20.8693ZM65.5788 32V18.9091H69.6271V21.2955H69.7635C70.0021 20.4318 70.3913 19.7898 70.9311 19.3693C71.4709 18.9432 72.0987 18.7301 72.8146 18.7301C73.0078 18.7301 73.2067 18.7443 73.4112 18.7727C73.6158 18.7955 73.8061 18.8324 73.9822 18.8835V22.5057C73.7834 22.4375 73.522 22.3835 73.1982 22.3438C72.88 22.304 72.5959 22.2841 72.3459 22.2841C71.8516 22.2841 71.4055 22.3949 71.0078 22.6165C70.6158 22.8324 70.3061 23.1364 70.0788 23.5284C69.8572 23.9148 69.7464 24.3693 69.7464 24.892V32H65.5788ZM78.6271 36.9091C78.1271 36.9091 77.6555 36.8693 77.2124 36.7898C76.7692 36.7159 76.3885 36.6165 76.0703 36.4915L76.9908 33.4659C77.3999 33.6023 77.7692 33.6818 78.0987 33.7045C78.4339 33.7273 78.7209 33.6733 78.9595 33.5426C79.2038 33.4176 79.3913 33.1932 79.522 32.8693L79.6839 32.4773L75.0305 18.9091H79.3942L81.8061 28.25H81.9425L84.3885 18.9091H88.7777L83.843 33.2528C83.6044 33.9688 83.2663 34.5994 82.8288 35.1449C82.397 35.696 81.8374 36.1278 81.1499 36.4403C80.468 36.7528 79.6271 36.9091 78.6271 36.9091ZM90.3757 36.9091V18.9091H94.5007V21.1506H94.6286C94.799 20.7528 95.0405 20.3693 95.353 20C95.6712 19.6307 96.0746 19.3295 96.5632 19.0966C97.0575 18.858 97.6484 18.7386 98.3359 18.7386C99.245 18.7386 100.094 18.9773 100.884 19.4545C101.68 19.9318 102.322 20.6676 102.81 21.6619C103.299 22.6562 103.543 23.9233 103.543 25.4631C103.543 26.946 103.308 28.1875 102.836 29.1875C102.37 30.1875 101.739 30.9375 100.944 31.4375C100.154 31.9375 99.2763 32.1875 98.3104 32.1875C97.6513 32.1875 97.0803 32.0795 96.5973 31.8636C96.1143 31.6477 95.7081 31.3636 95.3786 31.0114C95.0547 30.6591 94.8047 30.2812 94.6286 29.8778H94.5433V36.9091H90.3757ZM94.4581 25.4545C94.4581 26.1591 94.5518 26.7727 94.7393 27.2955C94.9325 27.8182 95.2081 28.2244 95.5661 28.5142C95.9297 28.7983 96.3643 28.9403 96.87 28.9403C97.3814 28.9403 97.8161 28.7983 98.174 28.5142C98.532 28.2244 98.8018 27.8182 98.9837 27.2955C99.1712 26.7727 99.2649 26.1591 99.2649 25.4545C99.2649 24.75 99.1712 24.1392 98.9837 23.6222C98.8018 23.1051 98.532 22.7045 98.174 22.4205C97.8217 22.1364 97.3871 21.9943 96.87 21.9943C96.3587 21.9943 95.924 22.1335 95.5661 22.4119C95.2081 22.6903 94.9325 23.0881 94.7393 23.6051C94.5518 24.1222 94.4581 24.7386 94.4581 25.4545ZM113.116 18.9091V21.9773H104.858V18.9091H113.116ZM106.588 15.7727H110.756V27.8835C110.756 28.1392 110.795 28.3466 110.875 28.5057C110.96 28.6591 111.082 28.7699 111.241 28.8381C111.401 28.9006 111.591 28.9318 111.812 28.9318C111.972 28.9318 112.139 28.9176 112.315 28.8892C112.497 28.8551 112.634 28.8267 112.724 28.804L113.355 31.8125C113.156 31.8693 112.875 31.9403 112.511 32.0256C112.153 32.1108 111.724 32.1648 111.224 32.1875C110.247 32.233 109.409 32.1193 108.71 31.8466C108.017 31.5682 107.486 31.1364 107.116 30.5511C106.753 29.9659 106.577 29.2301 106.588 28.3438V15.7727ZM121.213 32.2472C119.838 32.2472 118.656 31.9659 117.668 31.4034C116.685 30.8352 115.926 30.0455 115.392 29.0341C114.864 28.017 114.599 26.8381 114.599 25.4972C114.599 24.1506 114.864 22.9716 115.392 21.9602C115.926 20.9432 116.685 20.1534 117.668 19.5909C118.656 19.0227 119.838 18.7386 121.213 18.7386C122.588 18.7386 123.767 19.0227 124.75 19.5909C125.739 20.1534 126.497 20.9432 127.026 21.9602C127.56 22.9716 127.827 24.1506 127.827 25.4972C127.827 26.8381 127.56 28.017 127.026 29.0341C126.497 30.0455 125.739 30.8352 124.75 31.4034C123.767 31.9659 122.588 32.2472 121.213 32.2472ZM121.239 29.1023C121.739 29.1023 122.162 28.9489 122.509 28.642C122.855 28.3352 123.119 27.9091 123.301 27.3636C123.489 26.8182 123.582 26.1875 123.582 25.4716C123.582 24.7443 123.489 24.108 123.301 23.5625C123.119 23.017 122.855 22.5909 122.509 22.2841C122.162 21.9773 121.739 21.8239 121.239 21.8239C120.722 21.8239 120.284 21.9773 119.926 22.2841C119.574 22.5909 119.304 23.017 119.116 23.5625C118.935 24.108 118.844 24.7443 118.844 25.4716C118.844 26.1875 118.935 26.8182 119.116 27.3636C119.304 27.9091 119.574 28.3352 119.926 28.642C120.284 28.9489 120.722 29.1023 121.239 29.1023ZM139.396 19.7784C139.339 19.1534 139.087 18.6676 138.638 18.321C138.195 17.9688 137.561 17.7926 136.737 17.7926C136.192 17.7926 135.737 17.8636 135.374 18.0057C135.01 18.1477 134.737 18.3438 134.555 18.5938C134.374 18.8381 134.28 19.1193 134.274 19.4375C134.263 19.6989 134.314 19.929 134.428 20.1278C134.547 20.3267 134.717 20.5028 134.939 20.6562C135.166 20.804 135.439 20.9347 135.757 21.0483C136.075 21.1619 136.433 21.2614 136.831 21.3466L138.331 21.6875C139.195 21.875 139.956 22.125 140.615 22.4375C141.28 22.75 141.837 23.1222 142.286 23.554C142.74 23.9858 143.084 24.483 143.317 25.0455C143.55 25.608 143.669 26.2386 143.675 26.9375C143.669 28.0398 143.391 28.9858 142.839 29.7756C142.288 30.5653 141.496 31.1705 140.462 31.5909C139.433 32.0114 138.192 32.2216 136.737 32.2216C135.277 32.2216 134.004 32.0028 132.919 31.5653C131.834 31.1278 130.99 30.4631 130.388 29.571C129.786 28.679 129.476 27.5511 129.459 26.1875H133.499C133.533 26.75 133.683 27.2188 133.95 27.5938C134.217 27.9688 134.584 28.2528 135.05 28.446C135.521 28.6392 136.067 28.7358 136.686 28.7358C137.254 28.7358 137.737 28.6591 138.135 28.5057C138.538 28.3523 138.848 28.1392 139.064 27.8665C139.28 27.5937 139.391 27.2812 139.396 26.929C139.391 26.5994 139.288 26.3182 139.089 26.0852C138.891 25.8466 138.584 25.642 138.169 25.4716C137.76 25.2955 137.237 25.1335 136.601 24.9858L134.777 24.5597C133.266 24.2131 132.075 23.6534 131.206 22.8807C130.337 22.1023 129.905 21.0511 129.911 19.7273C129.905 18.6477 130.195 17.7017 130.78 16.8892C131.365 16.0767 132.175 15.4432 133.209 14.9886C134.243 14.5341 135.422 14.3068 136.746 14.3068C138.098 14.3068 139.271 14.5369 140.266 14.9972C141.266 15.4517 142.041 16.0909 142.592 16.9148C143.143 17.7386 143.425 18.6932 143.436 19.7784H139.396ZM151.916 32.2472C150.536 32.2472 149.351 31.9631 148.362 31.3949C147.379 30.8267 146.624 30.0369 146.095 29.0256C145.567 28.0085 145.303 26.8324 145.303 25.4972C145.303 24.1562 145.567 22.9801 146.095 21.9688C146.629 20.9517 147.388 20.1591 148.371 19.5909C149.359 19.0227 150.538 18.7386 151.908 18.7386C153.118 18.7386 154.172 18.9574 155.07 19.3949C155.973 19.8324 156.678 20.4517 157.183 21.2528C157.695 22.0483 157.964 22.983 157.993 24.0568H154.098C154.018 23.3864 153.791 22.8608 153.416 22.4801C153.047 22.0994 152.564 21.9091 151.967 21.9091C151.484 21.9091 151.061 22.0455 150.697 22.3182C150.334 22.5852 150.05 22.983 149.845 23.5114C149.646 24.0341 149.547 24.6818 149.547 25.4545C149.547 26.2273 149.646 26.8807 149.845 27.4148C150.05 27.9432 150.334 28.3437 150.697 28.6165C151.061 28.8835 151.484 29.017 151.967 29.017C152.354 29.017 152.695 28.9347 152.99 28.7699C153.291 28.6051 153.538 28.3636 153.732 28.0455C153.925 27.7216 154.047 27.3295 154.098 26.8693H157.993C157.953 27.9489 157.683 28.892 157.183 29.6989C156.689 30.5057 155.993 31.1335 155.095 31.5824C154.203 32.0256 153.143 32.2472 151.916 32.2472ZM160.126 32V18.9091H164.293V32H160.126ZM162.214 17.3835C161.629 17.3835 161.126 17.1903 160.705 16.804C160.285 16.4119 160.075 15.9403 160.075 15.3892C160.075 14.8437 160.285 14.3778 160.705 13.9915C161.126 13.5994 161.629 13.4034 162.214 13.4034C162.805 13.4034 163.308 13.5994 163.722 13.9915C164.143 14.3778 164.353 14.8437 164.353 15.3892C164.353 15.9403 164.143 16.4119 163.722 16.804C163.308 17.1903 162.805 17.3835 162.214 17.3835ZM171.114 24.5341V32H166.946V18.9091H170.909V21.3125H171.054C171.344 20.5114 171.838 19.8835 172.537 19.429C173.236 18.9688 174.068 18.7386 175.034 18.7386C175.955 18.7386 176.753 18.946 177.429 19.3608C178.111 19.7699 178.639 20.3437 179.014 21.0824C179.395 21.8153 179.582 22.6733 179.577 23.6562V32H175.409V24.4744C175.415 23.7472 175.23 23.179 174.855 22.7699C174.486 22.3608 173.972 22.1562 173.312 22.1562C172.875 22.1562 172.489 22.2528 172.153 22.446C171.824 22.6335 171.568 22.9034 171.386 23.2557C171.21 23.608 171.119 24.0341 171.114 24.5341ZM188.268 32.2472C186.887 32.2472 185.702 31.9631 184.714 31.3949C183.731 30.8267 182.975 30.0369 182.447 29.0256C181.918 28.0085 181.654 26.8324 181.654 25.4972C181.654 24.1562 181.918 22.9801 182.447 21.9688C182.981 20.9517 183.739 20.1591 184.722 19.5909C185.711 19.0227 186.89 18.7386 188.259 18.7386C189.469 18.7386 190.523 18.9574 191.421 19.3949C192.325 19.8324 193.029 20.4517 193.535 21.2528C194.046 22.0483 194.316 22.983 194.344 24.0568H190.45C190.37 23.3864 190.143 22.8608 189.768 22.4801C189.398 22.0994 188.915 21.9091 188.319 21.9091C187.836 21.9091 187.413 22.0455 187.049 22.3182C186.685 22.5852 186.401 22.983 186.197 23.5114C185.998 24.0341 185.898 24.6818 185.898 25.4545C185.898 26.2273 185.998 26.8807 186.197 27.4148C186.401 27.9432 186.685 28.3437 187.049 28.6165C187.413 28.8835 187.836 29.017 188.319 29.017C188.705 29.017 189.046 28.9347 189.342 28.7699C189.643 28.6051 189.89 28.3636 190.083 28.0455C190.276 27.7216 190.398 27.3295 190.45 26.8693H194.344C194.305 27.9489 194.035 28.892 193.535 29.6989C193.04 30.5057 192.344 31.1335 191.447 31.5824C190.555 32.0256 189.495 32.2472 188.268 32.2472ZM202.597 32.2472C201.227 32.2472 200.045 31.9773 199.051 31.4375C198.063 30.892 197.301 30.1165 196.767 29.1108C196.239 28.0994 195.974 26.8977 195.974 25.5057C195.974 24.1534 196.241 22.9716 196.776 21.9602C197.31 20.9432 198.062 20.1534 199.034 19.5909C200.006 19.0227 201.151 18.7386 202.469 18.7386C203.401 18.7386 204.253 18.8835 205.026 19.1733C205.798 19.4631 206.466 19.892 207.028 20.4602C207.591 21.0284 208.028 21.7301 208.341 22.5653C208.653 23.3949 208.81 24.3466 208.81 25.4205V26.4602H197.432V24.0398H204.932C204.926 23.5966 204.821 23.2017 204.616 22.8551C204.412 22.5085 204.131 22.2386 203.773 22.0455C203.42 21.8466 203.014 21.7472 202.554 21.7472C202.088 21.7472 201.67 21.8523 201.301 22.0625C200.932 22.267 200.639 22.5483 200.423 22.9062C200.207 23.2585 200.094 23.6591 200.082 24.108V26.571C200.082 27.1051 200.188 27.5739 200.398 27.9773C200.608 28.375 200.906 28.6847 201.293 28.9062C201.679 29.1278 202.139 29.2386 202.673 29.2386C203.043 29.2386 203.378 29.1875 203.679 29.0852C203.98 28.983 204.239 28.8324 204.455 28.6335C204.67 28.4347 204.832 28.1903 204.94 27.9006L208.767 28.0114C208.608 28.8693 208.259 29.6165 207.719 30.2528C207.185 30.8835 206.483 31.375 205.614 31.7273C204.744 32.0739 203.739 32.2472 202.597 32.2472Z" fill="white"/>
</svg>
