<svg width="120" height="134" viewBox="0 0 120 134" fill="none" xmlns="http://www.w3.org/2000/svg">
<g filter="url(#filter0_d_29_2)">
<path d="M60.2502 34.689C54.969 34.689 50.6877 38.9703 50.6877 44.2515C50.6877 49.5327 54.969 53.814 60.2502 53.814C65.5315 53.814 69.8127 49.5327 69.8127 44.2515C69.7786 38.9845 65.5173 34.7231 60.2502 34.689Z" fill="#4A76FA"/>
<path d="M55.5627 64.564C55.5964 61.9893 57.6755 59.9102 60.2502 59.8765C62.825 59.9102 64.9041 61.9893 64.9377 64.564V75.5015C64.9377 78.0904 62.8391 80.189 60.2502 80.189C57.6614 80.189 55.5627 78.0904 55.5627 75.5015V64.564Z" fill="#4A76FA"/>
<path fill-rule="evenodd" clip-rule="evenodd" d="M96.3752 75.939L109.5 80.314C113.14 81.5707 115.61 84.964 115.688 88.814V113.814C115.688 120.269 110.455 125.502 104 125.502C102.745 125.503 101.498 125.291 100.313 124.877L94.0627 122.752C92.2757 124.541 89.8415 125.533 87.3127 125.502H77.8127C73.3917 125.753 69.5837 122.417 69.2502 118.002V101.689C68.9161 97.0319 64.9126 93.501 60.2502 93.7515C55.5879 93.501 51.5843 97.0319 51.2502 101.689V118.002C50.9167 122.417 47.1088 125.753 42.6877 125.502H33.1877C30.6589 125.533 28.2247 124.541 26.4377 122.752L20.1877 124.877C19.0026 125.291 17.7559 125.503 16.5002 125.502C10.1175 125.537 4.88666 120.445 4.75023 114.064V89.064C4.73096 85.1055 7.24941 81.5796 11.0002 80.314L24.1252 75.939V56.064C24.5707 34.0345 36.1147 13.7209 54.8127 2.06401C56.437 1.03063 58.3251 0.488085 60.2502 0.501514C62.1768 0.477207 64.0679 1.02063 65.6877 2.06401C84.3858 13.7209 95.9297 34.0345 96.3752 56.064V75.939ZM17.1252 116.002L19.1252 115.314L19.3127 87.5015L14.1877 89.189V113.814C14.1877 115.091 15.2231 116.127 16.5002 116.127L17.1252 116.002ZM86.3752 115.314H79.0002V101.689C78.5649 91.6523 70.2964 83.7421 60.2502 83.7515C50.2041 83.7421 41.9356 91.6523 41.5002 101.689V115.502H34.1252V56.064C34.6416 37.4564 44.4521 20.3468 60.2502 10.5015C76.0905 20.3442 85.9284 37.4843 86.4377 56.1265L86.3752 115.314ZM104.125 115.939C105.402 115.939 106.438 114.904 106.438 113.627V89.064L101.375 87.3765V115.252L103.375 115.939H104.125Z" fill="#4A76FA"/>
</g>
<defs>
<filter id="filter0_d_29_2" x="0.750122" y="0.500732" width="118.938" height="133.014" filterUnits="userSpaceOnUse" color-interpolation-filters="sRGB">
<feFlood flood-opacity="0" result="BackgroundImageFix"/>
<feColorMatrix in="SourceAlpha" type="matrix" values="0 0 0 0 0 0 0 0 0 0 0 0 0 0 0 0 0 0 127 0" result="hardAlpha"/>
<feOffset dy="4"/>
<feGaussianBlur stdDeviation="2"/>
<feComposite in2="hardAlpha" operator="out"/>
<feColorMatrix type="matrix" values="0 0 0 0 1 0 0 0 0 1 0 0 0 0 1 0 0 0 0.25 0"/>
<feBlend mode="normal" in2="BackgroundImageFix" result="effect1_dropShadow_29_2"/>
<feBlend mode="normal" in="SourceGraphic" in2="effect1_dropShadow_29_2" result="shape"/>
</filter>
</defs>
</svg>
