<svg width="144" height="144" viewBox="0 0 144 144" fill="none" xmlns="http://www.w3.org/2000/svg">
<g filter="url(#filter0_d_29_16)">
<path fill-rule="evenodd" clip-rule="evenodd" d="M59.5 43H84.5C91.4036 43 97 48.5964 97 55.5V80.5C97 87.4036 91.4036 93 84.5 93H59.5C52.5964 93 47 87.4036 47 80.5V55.5C47 48.5964 52.5964 43 59.5 43ZM84.5 83.625C86.2259 83.625 87.625 82.2259 87.625 80.5V55.5C87.625 53.7741 86.2259 52.375 84.5 52.375H59.5C57.7741 52.375 56.375 53.7741 56.375 55.5V80.5C56.375 82.2259 57.7741 83.625 59.5 83.625H84.5Z" fill="#4A76FA"/>
<path fill-rule="evenodd" clip-rule="evenodd" d="M115.75 75.8125H134.5C137.089 75.8125 139.188 77.9112 139.188 80.5C139.188 83.0888 137.089 85.1875 134.5 85.1875H115.75V86.75C115.75 100.557 104.557 111.75 90.75 111.75H89.1875V130.5C89.1875 133.089 87.0888 135.188 84.5 135.188C81.9112 135.188 79.8125 133.089 79.8125 130.5V111.75H64.1875V130.5C64.1875 133.089 62.0888 135.188 59.5 135.188C56.9112 135.188 54.8125 133.089 54.8125 130.5V111.75H53.25C39.4429 111.75 28.25 100.557 28.25 86.75V85.1875H9.5C6.91117 85.1875 4.8125 83.0888 4.8125 80.5C4.8125 77.9112 6.91117 75.8125 9.5 75.8125H28.25V60.1875H9.5C6.91117 60.1875 4.8125 58.0888 4.8125 55.5C4.8125 52.9112 6.91117 50.8125 9.5 50.8125H28.25V49.25C28.25 35.4429 39.4429 24.25 53.25 24.25H54.8125V5.5C54.8125 2.91117 56.9112 0.8125 59.5 0.8125C62.0888 0.8125 64.1875 2.91117 64.1875 5.5V24.25H79.8125V5.5C79.8125 2.91117 81.9112 0.8125 84.5 0.8125C87.0888 0.8125 89.1875 2.91117 89.1875 5.5V24.25H90.75C104.557 24.25 115.75 35.4429 115.75 49.25V50.8125H134.5C137.089 50.8125 139.188 52.9112 139.188 55.5C139.188 58.0888 137.089 60.1875 134.5 60.1875H115.75V75.8125ZM90.75 102.375C99.3794 102.375 106.375 95.3794 106.375 86.75V49.25C106.375 40.6205 99.3794 33.625 90.75 33.625H53.25C44.6205 33.625 37.625 40.6205 37.625 49.25V86.75C37.625 95.3794 44.6205 102.375 53.25 102.375H90.75Z" fill="#4A76FA"/>
</g>
<defs>
<filter id="filter0_d_29_16" x="0.8125" y="0.8125" width="142.375" height="142.375" filterUnits="userSpaceOnUse" color-interpolation-filters="sRGB">
<feFlood flood-opacity="0" result="BackgroundImageFix"/>
<feColorMatrix in="SourceAlpha" type="matrix" values="0 0 0 0 0 0 0 0 0 0 0 0 0 0 0 0 0 0 127 0" result="hardAlpha"/>
<feOffset dy="4"/>
<feGaussianBlur stdDeviation="2"/>
<feComposite in2="hardAlpha" operator="out"/>
<feColorMatrix type="matrix" values="0 0 0 0 1 0 0 0 0 1 0 0 0 0 1 0 0 0 0.25 0"/>
<feBlend mode="normal" in2="BackgroundImageFix" result="effect1_dropShadow_29_16"/>
<feBlend mode="normal" in="SourceGraphic" in2="effect1_dropShadow_29_16" result="shape"/>
</filter>
</defs>
</svg>
